<mxfile host="app.diagrams.net" modified="2024-04-25T12:48:06.086Z" agent="Mozilla/5.0 (Windows NT 10.0; Win64; x64) AppleWebKit/537.36 (KHTML, like Gecko) Chrome/124.0.0.0 Safari/537.36" etag="2JiVlkPSsBJ0pXvuwAhR" version="24.3.0" type="device">
  <diagram name="PÃ¡gina-1" id="zwWgLKGaE9QLGBcvWppT">
    <mxGraphModel dx="1178" dy="910" grid="0" gridSize="10" guides="1" tooltips="1" connect="1" arrows="1" fold="1" page="0" pageScale="1" pageWidth="827" pageHeight="1169" math="0" shadow="0">
      <root>
        <mxCell id="0" />
        <mxCell id="1" parent="0" />
        <mxCell id="kXwZlaJyTOdsOgmpuzsx-1" value="" style="rounded=0;whiteSpace=wrap;html=1;" parent="1" vertex="1">
          <mxGeometry x="-105" y="-22" width="503" height="155" as="geometry" />
        </mxCell>
        <mxCell id="kXwZlaJyTOdsOgmpuzsx-2" value="" style="ellipse;whiteSpace=wrap;html=1;" parent="1" vertex="1">
          <mxGeometry x="-23" y="15.5" width="80" height="80" as="geometry" />
        </mxCell>
        <mxCell id="kXwZlaJyTOdsOgmpuzsx-3" value="Text" style="text;strokeColor=none;fillColor=none;html=1;align=center;verticalAlign=middle;whiteSpace=wrap;rounded=0;fontSize=16;" parent="1" vertex="1">
          <mxGeometry x="184" y="37" width="60" height="30" as="geometry" />
        </mxCell>
        <mxCell id="kXwZlaJyTOdsOgmpuzsx-5" value="" style="rounded=0;whiteSpace=wrap;html=1;" parent="1" vertex="1">
          <mxGeometry x="-107" y="161" width="290" height="173" as="geometry" />
        </mxCell>
      </root>
    </mxGraphModel>
  </diagram>
</mxfile>
